<svg width="151" height="50" viewBox="0 0 151 50" fill="none" xmlns="http://www.w3.org/2000/svg">
<g clip-path="url(#clip0_55_1126)">
<path d="M69.6563 24.1804C69.6563 23.1949 69.0498 22.4115 67.9886 22.4115H51.0577V25.7219H63.7685L51.4367 36.3098C50.906 36.7647 50.6533 37.3459 50.6533 37.9525C50.6533 38.9633 51.2598 39.6457 52.3213 39.6457H70.1112V36.3603H56.8446L68.9234 25.7724C69.4036 25.3428 69.6563 24.7869 69.6563 24.1804ZM82.6139 39.6457V25.7219H89.8411V22.4115H71.5204V25.7219H78.7476V39.6457H82.6139ZM94.9528 39.6457V31.7362C94.9528 29.5628 95.6098 29.0068 97.7071 29.0068H100.057V25.9493H97.606C92.9818 25.9493 91.1876 27.6171 91.1876 31.7109V39.6457H94.9528ZM113.259 39.6457C118.389 39.6457 119.88 38.0788 119.88 33.7324V25.9493H116.14V33.6313C116.14 35.9563 115.508 36.4362 113.057 36.4362H109.115C106.815 36.4362 106.032 35.9563 106.032 33.6313V25.9493H102.241V33.7324C102.241 38.0788 103.732 39.6457 108.811 39.6457H113.259ZM138.872 35.2992C138.872 32.4185 138.088 31.3571 134.576 31.3571H127.147C126.489 31.3571 126.186 31.1296 126.186 30.3715V29.7397C126.186 29.0321 126.489 28.8049 127.222 28.8049H131.518V25.9493H126.313C123.381 25.9493 122.497 26.859 122.497 29.2343V30.2704C122.497 32.6709 123.078 33.884 126.186 33.884H133.868C134.778 33.884 135.132 34.0103 135.132 35.0212V35.4761C135.132 36.4109 134.778 36.6889 133.767 36.6889H122.472V39.6457H134.247C138.088 39.6457 138.872 38.7106 138.872 36.0068V35.2992ZM145.858 39.6457V29.0068H150.179V25.9493H145.858V22.083H142.017V25.9493H140.097V29.0068H142.017V39.6457H145.858Z" fill="url(#paint0_linear_55_1126)"/>
<path d="M69.6563 24.1804C69.6563 23.1949 69.0498 22.4115 67.9886 22.4115H51.0577V25.7219H63.7685L51.4367 36.3098C50.906 36.7647 50.6533 37.3459 50.6533 37.9525C50.6533 38.9633 51.2598 39.6457 52.3213 39.6457H70.1112V36.3603H56.8446L68.9234 25.7724C69.4036 25.3428 69.6563 24.7869 69.6563 24.1804ZM82.6139 39.6457V25.7219H89.8411V22.4115H71.5204V25.7219H78.7476V39.6457H82.6139ZM94.9528 39.6457V31.7362C94.9528 29.5628 95.6098 29.0068 97.7071 29.0068H100.057V25.9493H97.606C92.9818 25.9493 91.1876 27.6171 91.1876 31.7109V39.6457H94.9528ZM113.259 39.6457C118.389 39.6457 119.88 38.0788 119.88 33.7324V25.9493H116.14V33.6313C116.14 35.9563 115.508 36.4362 113.057 36.4362H109.115C106.815 36.4362 106.032 35.9563 106.032 33.6313V25.9493H102.241V33.7324C102.241 38.0788 103.732 39.6457 108.811 39.6457H113.259ZM138.872 35.2992C138.872 32.4185 138.088 31.3571 134.576 31.3571H127.147C126.489 31.3571 126.186 31.1296 126.186 30.3715V29.7397C126.186 29.0321 126.489 28.8049 127.222 28.8049H131.518V25.9493H126.313C123.381 25.9493 122.497 26.859 122.497 29.2343V30.2704C122.497 32.6709 123.078 33.884 126.186 33.884H133.868C134.778 33.884 135.132 34.0103 135.132 35.0212V35.4761C135.132 36.4109 134.778 36.6889 133.767 36.6889H122.472V39.6457H134.247C138.088 39.6457 138.872 38.7106 138.872 36.0068V35.2992ZM145.858 39.6457V29.0068H150.179V25.9493H145.858V22.083H142.017V25.9493H140.097V29.0068H142.017V39.6457H145.858Z" fill="url(#paint1_linear_55_1126)"/>
<path d="M129.16 11.562H43.7572C42.5111 11.562 41.501 12.5722 41.501 13.8182C41.501 15.0643 42.5111 16.0745 43.7572 16.0745H129.16C130.406 16.0745 131.416 15.0643 131.416 13.8182C131.416 12.5722 130.406 11.562 129.16 11.562Z" fill="black"/>
<path d="M129.16 11.562H43.7572C42.5111 11.562 41.501 12.5722 41.501 13.8182C41.501 15.0643 42.5111 16.0745 43.7572 16.0745H129.16C130.406 16.0745 131.416 15.0643 131.416 13.8182C131.416 12.5722 130.406 11.562 129.16 11.562Z" fill="url(#paint2_linear_55_1126)"/>
<path d="M131.417 13.4272H124.087V18.7212H131.417V13.4272Z" fill="black"/>
<path d="M131.417 13.4272H124.087V18.7212H131.417V13.4272Z" fill="#47C2E2"/>
<path d="M43.7502 36.5401C44.0119 36.7012 44.094 37.0442 43.9266 37.3018C41.3472 41.2714 37.5812 44.3336 33.1578 46.0472C28.5616 47.8276 23.5086 48.054 18.7715 46.6915C14.0344 45.3292 9.87374 42.4529 6.92564 38.5026C3.97754 34.5523 2.4042 29.7453 2.44613 24.8162C2.48806 19.8873 4.14295 15.1077 7.15781 11.2081C10.1727 7.30844 14.3816 4.50344 19.1413 3.22181C23.9009 1.94019 28.9491 2.2525 33.5146 4.11097C37.9081 5.89948 41.6214 9.02521 44.1331 13.0383C44.2961 13.2986 44.2081 13.6402 43.9437 13.7966C43.6796 13.9531 43.3391 13.8652 43.1757 13.6051C40.7882 9.80108 37.2635 6.83804 33.0953 5.14116C28.7548 3.37431 23.9554 3.07738 19.4304 4.29583C14.9055 5.51426 10.904 8.181 8.03779 11.8884C5.17154 15.5958 3.59822 20.1397 3.55836 24.8257C3.51849 29.5116 5.01428 34.0817 7.81705 37.8374C10.6198 41.5931 14.5753 44.3273 19.0789 45.6227C23.5825 46.9178 28.3863 46.7026 32.7562 45.0099C36.9527 43.3841 40.5271 40.4814 42.979 36.7186C43.1467 36.4613 43.4888 36.3792 43.7502 36.5401Z" fill="url(#paint3_linear_55_1126)"/>
<path d="M43.7502 36.5401C44.0119 36.7012 44.094 37.0442 43.9266 37.3018C41.3472 41.2714 37.5812 44.3336 33.1578 46.0472C28.5616 47.8276 23.5086 48.054 18.7715 46.6915C14.0344 45.3292 9.87374 42.4529 6.92564 38.5026C3.97754 34.5523 2.4042 29.7453 2.44613 24.8162C2.48806 19.8873 4.14295 15.1077 7.15781 11.2081C10.1727 7.30844 14.3816 4.50344 19.1413 3.22181C23.9009 1.94019 28.9491 2.2525 33.5146 4.11097C37.9081 5.89948 41.6214 9.02521 44.1331 13.0383C44.2961 13.2986 44.2081 13.6402 43.9437 13.7966C43.6796 13.9531 43.3391 13.8652 43.1757 13.6051C40.7882 9.80108 37.2635 6.83804 33.0953 5.14116C28.7548 3.37431 23.9554 3.07738 19.4304 4.29583C14.9055 5.51426 10.904 8.181 8.03779 11.8884C5.17154 15.5958 3.59822 20.1397 3.55836 24.8257C3.51849 29.5116 5.01428 34.0817 7.81705 37.8374C10.6198 41.5931 14.5753 44.3273 19.0789 45.6227C23.5825 46.9178 28.3863 46.7026 32.7562 45.0099C36.9527 43.3841 40.5271 40.4814 42.979 36.7186C43.1467 36.4613 43.4888 36.3792 43.7502 36.5401Z" fill="url(#paint4_linear_55_1126)"/>
<path d="M43.7502 36.5401C44.0119 36.7012 44.094 37.0442 43.9266 37.3018C41.3472 41.2714 37.5812 44.3336 33.1578 46.0472C28.5616 47.8276 23.5086 48.054 18.7715 46.6915C14.0344 45.3292 9.87374 42.4529 6.92564 38.5026C3.97754 34.5523 2.4042 29.7453 2.44613 24.8162C2.48806 19.8873 4.14295 15.1077 7.15781 11.2081C10.1727 7.30844 14.3816 4.50344 19.1413 3.22181C23.9009 1.94019 28.9491 2.2525 33.5146 4.11097C37.9081 5.89948 41.6214 9.02521 44.1331 13.0383C44.2961 13.2986 44.2081 13.6402 43.9437 13.7966C43.6796 13.9531 43.3391 13.8652 43.1757 13.6051C40.7882 9.80108 37.2635 6.83804 33.0953 5.14116C28.7548 3.37431 23.9554 3.07738 19.4304 4.29583C14.9055 5.51426 10.904 8.181 8.03779 11.8884C5.17154 15.5958 3.59822 20.1397 3.55836 24.8257C3.51849 29.5116 5.01428 34.0817 7.81705 37.8374C10.6198 41.5931 14.5753 44.3273 19.0789 45.6227C23.5825 46.9178 28.3863 46.7026 32.7562 45.0099C36.9527 43.3841 40.5271 40.4814 42.979 36.7186C43.1467 36.4613 43.4888 36.3792 43.7502 36.5401Z" fill="url(#paint5_linear_55_1126)"/>
<path d="M43.7502 36.5401C44.0119 36.7012 44.094 37.0442 43.9266 37.3018C41.3472 41.2714 37.5812 44.3336 33.1578 46.0472C28.5616 47.8276 23.5086 48.054 18.7715 46.6915C14.0344 45.3292 9.87374 42.4529 6.92564 38.5026C3.97754 34.5523 2.4042 29.7453 2.44613 24.8162C2.48806 19.8873 4.14295 15.1077 7.15781 11.2081C10.1727 7.30844 14.3816 4.50344 19.1413 3.22181C23.9009 1.94019 28.9491 2.25249 33.5146 4.11097C37.9081 5.89948 41.6214 9.02521 44.1331 13.0383C44.2961 13.2986 44.2081 13.6402 43.9437 13.7966C43.6796 13.9531 43.3391 13.8652 43.1757 13.6051C40.7882 9.80108 37.2635 6.83804 33.0953 5.14116C28.7548 3.37431 23.9554 3.07738 19.4305 4.29583C14.9055 5.51426 10.904 8.181 8.03779 11.8884C5.17154 15.5958 3.59822 20.1397 3.55836 24.8257C3.51849 29.5116 5.01428 34.0817 7.81705 37.8374C10.6198 41.5931 14.5753 44.3273 19.0789 45.6227C23.5825 46.9178 28.3863 46.7026 32.7562 45.0099C36.9527 43.3841 40.5271 40.4814 42.979 36.7186C43.1467 36.4613 43.4888 36.3792 43.7502 36.5401Z" stroke="url(#paint6_linear_55_1126)" stroke-width="4"/>
<path d="M26.5874 28.658C26.5874 27.7857 25.8803 27.0786 25.0081 27.0786C24.1358 27.0786 23.4287 27.7857 23.4287 28.658V30.0117C23.4287 30.884 24.1358 31.5911 25.0081 31.5911C25.8803 31.5911 26.5874 30.884 26.5874 30.0117V28.658Z" fill="#1B70E0"/>
<path d="M25.0078 28.9443C28.123 28.9443 30.6484 26.4189 30.6484 23.3037C30.6484 20.1885 28.123 17.6631 25.0078 17.6631C21.8926 17.6631 19.3672 20.1885 19.3672 23.3037C19.3672 26.4189 21.8926 28.9443 25.0078 28.9443Z" fill="#1769E0"/>
</g>
<defs>
<linearGradient id="paint0_linear_55_1126" x1="156.153" y1="32.9557" x2="-73.0456" y2="11.2904" gradientUnits="userSpaceOnUse">
<stop stop-color="#4DCDE2"/>
<stop offset="1" stop-color="#1667E0"/>
</linearGradient>
<linearGradient id="paint1_linear_55_1126" x1="153.646" y1="35.1625" x2="49.7267" y2="33.9424" gradientUnits="userSpaceOnUse">
<stop stop-color="#4DCDE2"/>
<stop offset="1" stop-color="#1667E0"/>
</linearGradient>
<linearGradient id="paint2_linear_55_1126" x1="136.335" y1="13.8183" x2="50.3542" y2="5.03563" gradientUnits="userSpaceOnUse">
<stop stop-color="#4DCDE2"/>
<stop offset="1" stop-color="#1667E0"/>
</linearGradient>
<linearGradient id="paint3_linear_55_1126" x1="0.16994" y1="32.2262" x2="47.5796" y2="32.317" gradientUnits="userSpaceOnUse">
<stop stop-color="#4DCDE2"/>
<stop offset="1" stop-color="#1667E0"/>
</linearGradient>
<linearGradient id="paint4_linear_55_1126" x1="0.16994" y1="32.2262" x2="47.5796" y2="32.317" gradientUnits="userSpaceOnUse">
<stop stop-color="#4DCDE2"/>
<stop offset="1" stop-color="#1667E0"/>
</linearGradient>
<linearGradient id="paint5_linear_55_1126" x1="0.16994" y1="32.2262" x2="47.5796" y2="32.317" gradientUnits="userSpaceOnUse">
<stop stop-color="#4DCDE2"/>
<stop offset="1" stop-color="#1667E0"/>
</linearGradient>
<linearGradient id="paint6_linear_55_1126" x1="0.16994" y1="32.2262" x2="47.5796" y2="32.317" gradientUnits="userSpaceOnUse">
<stop stop-color="#4DCDE2"/>
<stop offset="1" stop-color="#1667E0"/>
</linearGradient>
<clipPath id="clip0_55_1126">
<rect width="150.815" height="50" fill="white"/>
</clipPath>
</defs>
</svg>
